<?xml version="1.0" encoding="utf-8"?>
<!-- Generator: Adobe Illustrator 19.2.1, SVG Export Plug-In . SVG Version: 6.00 Build 0)  -->
<svg version="1.1" xmlns="http://www.w3.org/2000/svg" xmlns:xlink="http://www.w3.org/1999/xlink" x="0px" y="0px"
	 viewBox="0 0 1190.5 841.9" style="enable-background:new 0 0 1190.5 841.9;" xml:space="preserve">
<style type="text/css">
	.st0{fill:#D92730;}
	.st1{fill:#FFFFFF;}
	.st2{fill:none;stroke:#D92730;stroke-width:3;stroke-miterlimit:10;}
	.st3{display:none;}
	.st4{display:inline;}
</style>
<g id="Laag_1">
	<circle class="st0" cx="595.3" cy="388.9" r="43.1"/>
	<g>
		<path class="st1" d="M605.4,355.4c-1.9-1.5-4.4-2.2-7.5-2.2c-3.4,0-6.4,0.8-9.1,2.4c-2.6,1.6-4.9,3.8-6.6,6.7
			c-1.8,2.9-3.1,6.4-4.1,10.5c-1,4.1-1.5,8.8-1.5,13.9c-0.1,3.2-0.5,6.5-1.2,9.9c-0.8,3.4-2,6.5-3.7,9.4c-1.7,2.8-3.9,5.1-6.6,6.9
			c-1.9,1.2-4,2-6.4,2.4c-1.1,0.2-2.3,0.3-3.6,0.3c-0.6,0-1.1,0-1.6,0c0.2,0.4,0.5,0.7,0.8,1.1h0.2c1.7,0,3.3-0.1,5-0.4
			c1.5-0.2,3-0.6,4.5-1c3.1-0.9,5.9-2.5,8.4-4.9c2.5-2.3,4.6-5.4,6.3-9.4c1.7-3.9,2.8-8.9,3.2-14.8c0.2-2.4,0.4-4.9,0.6-7.4
			c0.2-2.5,0.5-4.9,0.9-7.3c0.4-2.4,0.9-4.6,1.6-6.6s1.6-3.9,2.7-5.5c1.1-1.6,2.4-2.8,4-3.7c1.6-0.9,3.5-1.3,5.8-1.3
			c1.7,0,3.1,0.5,4.3,1.5c1.2,1,1.8,2.6,1.8,4.7c0,1.4-0.2,2.6-0.5,3.5c-0.3,0.9-0.8,1.9-1.4,2.9c1.8,0,3.4-0.5,4.7-1.4
			c1.3-0.9,2-2.3,2-4.2C608.3,358.8,607.3,356.9,605.4,355.4z"/>
		<path class="st1" d="M636.4,392.4c-0.2,0.2-0.4,0.5-0.6,0.7c-0.9,1-1.9,1.8-3,2.5c-1.4,0.9-3,1.3-4.6,1.3c-1.5,0-2.9-0.3-4.1-0.9
			c-1.2-0.6-2.1-1.3-2.6-2c0.2-1.2,0.3-2.4,0.3-3.8c0-1.7-0.3-3.1-0.8-4.1c-0.5-1-1.3-1.6-2.3-1.6c-0.9,0-1.5,0.3-1.9,0.8
			c-0.4,0.5-0.6,1.2-0.6,2c0,0.7,0.1,1.4,0.4,2c0.3,0.6,0.4,1.2,0.4,1.9c0,1.9-0.7,4.2-2.1,6.9c-1.4,2.7-3.1,5.2-5.1,7.7
			c-2,2.5-4.2,4.6-6.7,6.4c-2.4,1.7-4.6,2.6-6.7,2.6c-1.1,0-2-0.4-2.7-1.1c-0.7-0.7-1-1.7-1-2.8c0-0.9,0.1-1.8,0.4-2.7
			c0.3-1,0.8-2.2,1.7-3.8c0.8-1.6,2-3.6,3.5-6c1.5-2.4,3.6-5.6,6.1-9.4c2.5-3.9,5.6-8.6,9.2-14.1c3-4.5,6.4-9.8,10.3-15.8
			c0.8-1.2,1.6-2.5,2.4-3.7c0.1-0.1,0.2-0.2,0.2-0.4l-0.6,0l-5.2,0.2c-0.1,0.2-0.3,0.4-0.4,0.6c-4.3,6.6-8.2,12.3-11.4,17.2
			c-3.4,5.1-6.2,9.5-8.6,13.1c-2.4,3.7-4.3,6.8-5.9,9.3c-1.5,2.5-2.7,4.6-3.6,6.3c-0.9,1.7-1.5,3.1-1.8,4.2
			c-0.3,1.1-0.5,2.2-0.5,3.1c0,2.2,0.7,3.9,2.1,5.1c1.4,1.2,3.2,1.8,5.2,1.8c2.5,0,5.1-0.6,7.7-1.9c2.6-1.2,5.1-2.9,7.5-4.9
			c2.4-2,4.4-4.2,6.2-6.7c1.8-2.5,3-4.9,3.8-7.3c1,0.8,2.1,1.5,3.2,2c1.2,0.5,2.4,0.7,3.7,0.7c1.9,0,3.7-0.5,5.2-1.5
			c0.9-0.6,1.7-1.2,2.4-1.8c0.5-0.5,1-1,1.4-1.4L636.4,392.4z"/>
	</g>
	<path class="st2" d="M642.7,388.9c0,26.2-21.2,47.5-47.5,47.5c-15.9,0-30-7.8-38.6-19.8c-0.3-0.4-0.5-0.7-0.8-1.1
		c-5.1-7.6-8.1-16.7-8.1-26.6c0-26.2,21.2-47.5,47.5-47.5c12.9,0,24.6,5.2,33.2,13.5c0.1,0.1,0.2,0.2,0.3,0.3
		C637.4,363.9,642.7,375.7,642.7,388.9z"/>
</g>
<g id="Laag_2" class="st3">
	<g class="st4">
		<circle class="st0" cx="595.3" cy="330.3" r="2.3"/>
	</g>
	<g class="st4">
		
			<ellipse transform="matrix(0.966 -0.2587 0.2587 0.966 -66.2265 161.4006)" class="st0" cx="580.1" cy="332.3" rx="2.3" ry="2.3"/>
	</g>
	<g class="st4">
		<ellipse transform="matrix(0.866 -0.5 0.5 0.866 -93.2555 328.2931)" class="st0" cx="566" cy="338.2" rx="2.3" ry="2.3"/>
	</g>
	<g class="st4">
		
			<ellipse transform="matrix(0.7071 -0.7071 0.7071 0.7071 -83.4718 493.4304)" class="st0" cx="553.9" cy="347.5" rx="2.3" ry="2.3"/>
	</g>
	<g class="st4">
		<ellipse transform="matrix(0.5 -0.866 0.866 0.5 -39.1229 651.4308)" class="st0" cx="544.6" cy="359.6" rx="2.3" ry="2.3"/>
	</g>
	<g class="st4">
		
			<ellipse transform="matrix(0.2589 -0.9659 0.9659 0.2589 38.2998 797.341)" class="st0" cx="538.7" cy="373.7" rx="2.3" ry="2.3"/>
	</g>
	<g class="st4">
		<circle class="st0" cx="536.7" cy="388.9" r="2.3"/>
	</g>
	<g class="st4">
		<ellipse transform="matrix(0.966 -0.2586 0.2586 0.966 -86.1637 153.0901)" class="st0" cx="538.7" cy="404" rx="2.3" ry="2.3"/>
	</g>
	<g class="st4">
		
			<ellipse transform="matrix(0.8661 -0.4999 0.4999 0.8661 -136.0969 328.2642)" class="st0" cx="544.6" cy="418.1" rx="2.3" ry="2.3"/>
	</g>
	<g class="st4">
		
			<ellipse transform="matrix(0.7072 -0.707 0.707 0.7072 -142.015 517.5773)" class="st0" cx="553.9" cy="430.2" rx="2.3" ry="2.3"/>
	</g>
	<g class="st4">
		
			<ellipse transform="matrix(0.5001 -0.8659 0.8659 0.5001 -97.7056 709.8365)" class="st0" cx="566" cy="439.6" rx="2.3" ry="2.3"/>
	</g>
	<g class="st4">
		<ellipse transform="matrix(0.259 -0.9659 0.9659 0.259 -0.3506 890.3388)" class="st0" cx="580.1" cy="445.4" rx="2.3" ry="2.3"/>
	</g>
	<g class="st4">
		<circle class="st0" cx="595.3" cy="447.4" r="2.3"/>
	</g>
	<g class="st4">
		
			<ellipse transform="matrix(0.966 -0.2587 0.2587 0.966 -94.4352 173.0537)" class="st0" cx="610.4" cy="445.4" rx="2.3" ry="2.3"/>
	</g>
	<g class="st4">
		<ellipse transform="matrix(0.866 -0.5 0.5 0.866 -136.1044 371.1605)" class="st0" cx="624.5" cy="439.6" rx="2.3" ry="2.3"/>
	</g>
	<g class="st4">
		
			<ellipse transform="matrix(0.7072 -0.707 0.707 0.7072 -117.7807 576.0998)" class="st0" cx="636.7" cy="430.3" rx="2.3" ry="2.3"/>
	</g>
	<g class="st4">
		<ellipse transform="matrix(0.5001 -0.866 0.866 0.5001 -39.1727 768.4009)" class="st0" cx="646" cy="418.1" rx="2.3" ry="2.3"/>
	</g>
	<g class="st4">
		<ellipse transform="matrix(0.259 -0.9659 0.9659 0.259 92.7507 928.9283)" class="st0" cx="651.8" cy="404" rx="2.3" ry="2.3"/>
	</g>
	<g class="st4">
		<circle class="st0" cx="653.8" cy="388.9" r="2.3"/>
	</g>
	<g class="st4">
		
			<ellipse transform="matrix(0.966 -0.2586 0.2586 0.966 -74.4741 181.2797)" class="st0" cx="651.8" cy="373.7" rx="2.3" ry="2.3"/>
	</g>
	<g class="st4">
		
			<ellipse transform="matrix(0.8662 -0.4997 0.4997 0.8662 -93.2612 370.9162)" class="st0" cx="646" cy="359.6" rx="2.3" ry="2.3"/>
	</g>
	<g class="st4">
		
			<ellipse transform="matrix(0.7074 -0.7068 0.7068 0.7074 -59.3229 551.6449)" class="st0" cx="636.7" cy="347.5" rx="2.3" ry="2.3"/>
	</g>
	<g class="st4">
		<path class="st0" d="M626.6,339.3c-0.6,1.1-2.1,1.5-3.2,0.8c-1.1-0.6-1.5-2.1-0.9-3.2c0.6-1.1,2.1-1.5,3.2-0.9
			C626.8,336.8,627.2,338.2,626.6,339.3z"/>
	</g>
	<g class="st4">
		
			<ellipse transform="matrix(0.2591 -0.9658 0.9658 0.2591 131.2588 835.7759)" class="st0" cx="610.4" cy="332.3" rx="2.3" ry="2.3"/>
	</g>
</g>
</svg>
